<?xml version="1.0" encoding="utf-8" ?><svg xmlns="http://www.w3.org/2000/svg" xmlns:xlink="http://www.w3.org/1999/xlink" width="480" height="480" viewBox="0 0 480 480"><path fill="#1E1D1E" transform="matrix(0.46875 0 0 0.46875 0 -6.10352e-05)" d="M504.235 241.119C651.133 235.332 774.912 349.722 780.707 496.62C786.503 643.519 672.121 767.304 525.223 773.108C378.312 778.913 254.514 664.519 248.718 517.608C242.922 370.697 357.323 246.906 504.235 241.119ZM527.225 748.074C660.519 741.156 762.897 627.376 755.753 494.094C748.61 360.813 634.657 258.627 501.388 265.996C368.436 273.347 266.548 386.968 273.674 519.932C280.8 652.895 394.25 754.976 527.225 748.074Z"/><path fill="#93989B" transform="matrix(0.46875 0 0 0.46875 0 -6.10352e-05)" d="M571.933 397.99C574.195 357.044 626.693 340.535 652.533 370.334C661.058 380.045 665.333 392.769 664.401 405.657C662.725 428.44 641.272 449.764 618.053 448.459C619.105 450.703 630.313 472.502 630.778 472.834C648.405 455.765 676.26 455.325 694.417 471.829C712.575 488.334 714.787 516.104 699.473 535.276C684.158 554.447 656.585 558.424 636.477 544.361L634.343 544.442C633.075 545.971 628.491 560.72 627.774 563.443C634.686 563.554 647.817 571.453 652.62 576.816C662.369 587.698 666.357 596.339 666.123 610.709C666.012 623.057 660.907 634.834 651.971 643.357C632.751 661.889 602.306 661.066 584.153 641.621C575.551 632.407 573.364 624.014 571.715 611.881C568.542 611.048 550.638 620.725 546.387 622.482C527.779 605.768 499.286 606.759 481.884 624.724C476.812 622.746 471.546 621.263 466.412 619.133C463.543 617.942 460.024 615.894 457.481 614.986L456.929 615.877C453.753 639.592 433.326 657.173 409.403 656.783C385.48 656.392 365.637 638.154 363.236 614.349C360.835 590.543 376.635 568.71 399.999 563.55C397.666 558.466 395.772 550.429 392.914 544.29C373.806 557.999 347.478 555.321 331.522 538.046C315.565 520.77 314.982 494.313 330.162 476.351C345.341 458.39 371.526 454.554 391.219 467.408C391.579 466.969 392.884 461.981 393.208 460.956C394.85 455.765 396.269 453.171 399.234 448.675C386.37 444.995 378.365 439.815 371.091 428.985C346.868 392.926 380.689 345.577 422.728 357.109C441.766 362.332 455.371 379.595 456.763 398.439C466.213 394.717 471.445 391.402 481.812 389.71C498.973 406.97 526.569 407.99 544.958 392.045C546.283 392.111 571.864 397.946 571.933 397.99ZM520.231 550.734C544.611 547.731 561.953 525.553 558.99 501.169C556.027 476.784 533.877 459.406 509.488 462.33C485.043 465.261 467.616 487.472 470.586 511.912C473.556 536.352 495.796 553.743 520.231 550.734Z"/><path fill="#1E1D1E" transform="matrix(0.46875 0 0 0.46875 0 -6.10352e-05)" d="M399.999 563.55C415.04 560.228 430.755 564.459 442.096 574.882C453.437 585.306 458.974 600.61 456.929 615.877C453.753 639.592 433.326 657.173 409.403 656.783C385.48 656.392 365.637 638.154 363.236 614.349C360.835 590.543 376.635 568.71 399.999 563.55Z"/><path fill="#93989B" transform="matrix(0.46875 0 0 0.46875 0 -6.10352e-05)" d="M408.005 588.293C419.787 587.164 430.262 595.779 431.43 607.557C432.598 619.335 424.02 629.839 412.246 631.047C400.415 632.26 389.85 623.632 388.676 611.797C387.502 599.963 396.167 589.427 408.005 588.293Z"/><path fill="#1E1D1E" transform="matrix(0.46875 0 0 0.46875 0 -6.10352e-05)" d="M571.715 611.881C572.457 610.404 572.254 601.727 572.857 599.298C579.126 574.042 602.53 559.247 627.774 563.443C634.686 563.554 647.817 571.453 652.62 576.816C662.369 587.698 666.357 596.339 666.123 610.709C666.012 623.057 660.907 634.834 651.971 643.357C632.751 661.889 602.306 661.066 584.153 641.621C575.551 632.407 573.364 624.014 571.715 611.881Z"/><path fill="#93989B" transform="matrix(0.46875 0 0 0.46875 0 -6.10352e-05)" d="M614.705 588.76C626.339 586.456 637.645 593.995 639.991 605.621C642.337 617.246 634.839 628.58 623.222 630.968C611.546 633.369 600.141 625.824 597.783 614.139C595.425 602.453 603.011 591.076 614.705 588.76Z"/><path fill="#1E1D1E" transform="matrix(0.46875 0 0 0.46875 0 -6.10352e-05)" d="M399.234 448.675C386.37 444.995 378.365 439.815 371.091 428.985C346.868 392.926 380.689 345.577 422.728 357.109C441.766 362.332 455.371 379.595 456.763 398.439L456.658 399.205C456.213 402.699 456.816 408.179 456.204 411.591C454.384 421.738 447.374 432.867 439.3 439.098C426.18 449.223 414.904 450.087 399.234 448.675Z"/><path fill="#93989B" transform="matrix(0.46875 0 0 0.46875 0 -6.10352e-05)" d="M405.689 381.288C417.223 378.986 428.447 386.442 430.796 397.966C433.145 409.49 425.735 420.745 414.22 423.141C402.639 425.55 391.306 418.088 388.943 406.497C386.58 394.907 394.089 383.604 405.689 381.288Z"/><path fill="#1E1D1E" transform="matrix(0.46875 0 0 0.46875 0 -6.10352e-05)" d="M392.914 544.29C373.806 557.999 347.478 555.321 331.522 538.046C315.565 520.77 314.982 494.313 330.162 476.351C345.341 458.39 371.526 454.554 391.219 467.408C404.097 475.812 411.998 490.029 412.337 505.402C412.676 520.775 405.408 535.326 392.914 544.29Z"/><path fill="#93989B" transform="matrix(0.46875 0 0 0.46875 0 -6.10352e-05)" d="M361.32 486.271C372.598 483.858 383.685 491.089 386.022 502.383C388.359 513.676 381.054 524.714 369.744 526.975C358.542 529.214 347.633 521.993 345.318 510.806C343.003 499.62 350.15 488.662 361.32 486.271Z"/><path fill="#1E1D1E" transform="matrix(0.46875 0 0 0.46875 0 -6.10352e-05)" d="M630.778 472.834C648.405 455.765 676.26 455.325 694.417 471.829C712.575 488.334 714.787 516.104 699.473 535.276C684.158 554.447 656.585 558.424 636.477 544.361C625.1 536.404 617.872 523.781 616.769 509.941C615.666 496.101 620.804 482.492 630.778 472.834Z"/><path fill="#93989B" transform="matrix(0.46875 0 0 0.46875 0 -6.10352e-05)" d="M659.319 485.939C666.731 484.499 674.344 487.159 679.246 492.902C684.148 498.644 685.58 506.58 682.995 513.674C680.41 520.768 674.207 525.922 666.759 527.164C655.455 529.048 644.735 521.5 642.7 510.222C640.664 498.944 648.07 488.124 659.319 485.939Z"/><path fill="#1E1D1E" transform="matrix(0.46875 0 0 0.46875 0 -6.10352e-05)" d="M571.933 397.99C574.195 357.044 626.693 340.535 652.533 370.334C661.058 380.045 665.333 392.769 664.401 405.657C662.725 428.44 641.272 449.764 618.053 448.459C616.121 447.727 610.6 447.602 608.28 447.102C592.3 443.655 578.5 431.376 573.888 415.583C572.168 409.693 572.073 404.016 571.933 397.99Z"/><path fill="#93989B" transform="matrix(0.46875 0 0 0.46875 0 -6.10352e-05)" d="M614.702 381.273C625.922 379.289 636.642 386.726 638.715 397.93C640.787 409.134 633.435 419.913 622.247 422.073C610.935 424.258 600.009 416.806 597.914 405.476C595.818 394.146 603.356 383.28 614.702 381.273Z"/><path fill="#1E1D1E" transform="matrix(0.46875 0 0 0.46875 0 -6.10352e-05)" d="M507.503 436.865C545.912 432.853 580.314 460.704 584.384 499.107C588.454 537.51 560.655 571.954 522.258 576.082C483.78 580.219 449.246 552.347 445.167 513.862C441.088 475.378 469.012 440.886 507.503 436.865ZM520.231 550.734C544.611 547.731 561.953 525.553 558.99 501.169C556.027 476.784 533.877 459.406 509.488 462.33C485.043 465.261 467.616 487.472 470.586 511.912C473.556 536.352 495.796 553.743 520.231 550.734Z"/><path fill="#1E1D1E" transform="matrix(0.46875 0 0 0.46875 0 -6.10352e-05)" d="M481.884 624.724C499.286 606.759 527.779 605.768 546.387 622.482C560.505 635.162 565.506 655.146 559.025 672.982C552.544 690.817 535.881 702.928 516.916 703.588C497.951 704.247 480.487 693.322 472.783 675.979C465.079 658.637 468.681 638.354 481.884 624.724Z"/><path fill="#93989B" transform="matrix(0.46875 0 0 0.46875 0 -6.10352e-05)" d="M511.379 636.757C522.721 634.586 533.675 642.022 535.845 653.365C538.015 664.707 530.578 675.661 519.235 677.83C507.894 679.999 496.941 672.563 494.771 661.222C492.602 649.88 500.037 638.927 511.379 636.757Z"/><path fill="#1E1D1E" transform="matrix(0.46875 0 0 0.46875 0 -6.10352e-05)" d="M481.812 389.71C468.411 376.23 464.612 355.928 472.235 338.515C479.857 321.102 497.351 310.12 516.346 310.822C535.341 311.525 551.975 323.769 558.291 341.697C564.606 359.625 559.319 379.592 544.958 392.045C526.569 407.99 498.973 406.97 481.812 389.71Z"/><path fill="#93989B" transform="matrix(0.46875 0 0 0.46875 0 -6.10352e-05)" d="M510.576 336.785C521.874 334.469 532.902 341.778 535.171 353.086C537.44 364.393 530.086 375.391 518.77 377.614C507.518 379.824 496.597 372.522 494.341 361.28C492.085 350.037 499.343 339.086 510.576 336.785Z"/></svg>