<?xml version="1.0" encoding="utf-8" ?><svg xmlns="http://www.w3.org/2000/svg" xmlns:xlink="http://www.w3.org/1999/xlink" width="1024" height="1024" viewBox="0 0 1024 1024"><path d="M453.846 470.808C475.609 429.06 500.308 386.355 523.291 345.048L542.979 309.574C553.158 291.208 560.335 275.503 582.283 268.979C590.362 266.578 599.971 265.798 608.354 267.889C626.317 273.555 645.248 285.581 662.222 294.108C677.936 302.164 693.871 310.252 709.478 318.473C722.056 325.098 731.359 335.606 735.343 349.351C740.949 368.691 733.786 381.654 725.187 397.971L709.578 427.314L655.885 529.364C650.682 539.248 645.42 549.1 640.099 558.92C638.13 562.568 633.605 570.37 632.079 573.894C629.132 579.567 625.208 586.664 622.644 592.373L596.727 641.012C593.269 647.5 589.624 653.747 586.365 660.35C582.814 666.777 577.949 674.779 574.757 681.121C569.725 691.394 563.198 702.343 558.333 712.551C545.128 740.251 529.967 765.691 494.635 757.601C480.912 754.459 468.367 745.754 455.462 740.241C442.772 734.229 429.107 728.542 416.725 722.12C409.715 718.771 402.665 715.507 395.575 712.33C370.457 699.304 359.432 683.695 358.948 655C360.401 642.026 363.913 636.983 369.916 625.617L386.632 594.474C408.827 553.138 431.231 511.916 453.846 470.808Z"/><path fill="#FEFEFE" d="M537.843 359.773C546.844 364.636 556.585 368.937 565.784 373.576C590.846 386.418 616.099 398.884 641.534 410.97L575.104 536.054C569.432 546.609 563.819 557.196 558.266 567.814C556.443 571.342 548.245 588.764 545.763 589.167C535.371 585.355 520.52 576.76 510.082 571.562C486.893 560.21 463.79 548.685 440.772 536.988C442.451 533.314 446.052 527.261 448.096 523.569L461.202 499.635L510.724 409.269C519.436 393.538 530.194 375.755 537.843 359.773Z"/><path fill="#FEFEFE" d="M595.171 287.195C607.395 286.737 613.408 291.459 623.71 296.951L650.218 310.976C668.063 320.288 688.43 329.155 705.272 339.936C714.223 345.665 718.936 360.465 715.56 370.213C714.328 373.769 712.727 377.388 710.634 380.601C704.073 391.174 699.159 402.707 692.85 413.385C687.635 410.949 682.375 408.352 677.182 405.848C671.714 403.464 664.126 399.286 658.537 396.555C641.708 388.465 625.002 380.121 608.425 371.526C588.95 361.601 567.518 351.698 548.434 341.324C551.61 335.485 555.43 329.821 558.647 324.032C568.316 306.635 572.357 289.678 595.171 287.195Z"/><path d="M631.315 321.911C644.738 319.359 657.674 328.217 660.147 341.655C662.619 355.092 653.684 367.975 640.232 370.368C626.893 372.74 614.141 363.896 611.689 350.571C609.237 337.247 618.005 324.442 631.315 321.911Z"/><path fill="#FEFEFE" d="M663.873 422.16C670.241 425.22 676.592 428.312 682.928 431.436C664.466 468.212 643.54 506.095 624.179 542.539L598.244 591.657C595.227 597.249 592.15 603.699 588.931 609.034C582.11 606.16 575.845 602.873 569.277 599.473C578.092 584.227 586.323 567.828 594.597 552.197L638.046 470.016C646.124 454.712 655.025 436.879 663.873 422.16Z"/><path fill="#FEFEFE" d="M400.356 376.639C407.964 389.12 414.844 402.667 422.042 415.469L453.846 470.808C431.231 511.916 408.827 553.138 386.632 594.474L369.916 625.617C363.913 636.983 360.401 642.026 358.948 655C347.183 660.775 332.884 665.922 320.748 671.062C311.541 674.961 302.434 679.007 293.219 682.842C299.177 673.98 310.43 661.235 317.596 652.854L344.771 620.613C353.345 610.451 361.109 601.661 368.992 590.862C360.89 588.912 352.753 587.598 344.586 585.949L294.911 575.786C280.546 572.925 265.814 570.273 251.661 566.574C280.564 559.163 310.23 554.186 339.427 548.051C349.928 545.845 361.696 543.845 372.006 541.206C369.094 536.909 363.965 530.766 360.632 526.521L338.637 498.431C324.589 480.384 311.271 461.644 297.107 443.347C306.156 447.555 317.138 454.244 326.114 459.105C353.565 473.972 380.314 489.584 407.866 504.34C406.125 485.448 405.549 465.337 404.253 446.356C402.66 423.026 400.697 400.035 400.356 376.639Z"/><path fill="#FEFEFE" d="M586.365 660.35C594.454 674.628 602.757 687.689 609.593 702.694C605.042 699.033 599.322 695.999 594.25 692.992C587.7 689.122 581.201 685.165 574.757 681.121C577.949 674.779 582.814 666.777 586.365 660.35Z"/><path fill="#FEFEFE" d="M395.575 712.33C402.665 715.507 409.715 718.771 416.725 722.12C409.774 732.526 402.258 744.216 394.939 754.232C395.756 741.15 395.501 725.536 395.575 712.33Z"/><path fill="#FEFEFE" d="M632.079 573.894C644.773 575.285 657.945 577.213 670.566 578.343C657.644 582.995 636.372 588.963 622.644 592.373C625.208 586.664 629.132 579.567 632.079 573.894Z"/></svg>