<?xml version="1.0" encoding="utf-8" ?><svg xmlns="http://www.w3.org/2000/svg" xmlns:xlink="http://www.w3.org/1999/xlink" width="1024" height="1024" viewBox="0 0 1024 1024"><path d="M511.675 273.415C643.544 273.182 750.651 379.86 750.948 511.729C751.245 643.597 644.619 750.756 512.75 751.117C380.792 751.477 273.544 644.762 273.247 512.804C272.95 380.845 379.716 273.649 511.675 273.415Z"/><path fill="#FEFEFE" d="M600.925 392.628C619.796 377.658 635.243 365.871 654.696 351.774C648.961 359.74 644.705 367.72 639.704 376.161C632.932 387.689 625.846 399.029 618.455 410.17C614.424 416.462 610 423.698 605.651 429.672C611.682 438.148 617.949 446.823 622.687 456.103C634.717 479.664 638.391 507.782 633.946 533.765C628.359 565.821 610.245 594.336 583.603 613.018C556.594 632.438 522.874 640.097 490.125 634.251C470.215 630.693 461.063 625.627 443.766 617.15C437.149 622.739 431.239 627.07 424.577 632.345C409.425 644.927 386.781 661.27 370.531 671.988C380.225 654.557 393.214 632.635 404.344 616.114C408.092 610.514 414.456 601.471 417.287 595.761C406.169 583.157 396.429 564.162 392.014 548.021C382.837 514.988 387.254 479.656 404.281 449.899C420.876 421.132 448.27 400.18 480.379 391.697C503.991 385.384 536.938 387.892 559.291 397.218C567.363 400.586 573.916 404.334 581.445 408.687C587.583 403.25 594.517 397.82 600.925 392.628Z"/><path d="M629.171 379.531C629.209 379.776 580.907 452.283 576.254 458.605C565.402 473.351 551.454 493.472 540.607 508.488C542.893 511.358 546.076 514.524 548.629 517.2C566.048 535.459 584.722 552.456 602.038 570.823C583.165 561.968 563.97 553.862 545.282 544.667C537.558 540.867 528.079 536.824 520.901 532.377C493.877 559.119 465.902 586.76 437.296 611.724C424.853 622.583 409.022 634.655 395.891 645.629C395.88 645.577 395.859 645.527 395.857 645.474C395.745 642.4 408.298 624.914 410.594 621.425C434.27 585.439 458.153 549.876 483.991 515.375C477.508 507.628 465.256 497.175 457.599 490.145C445.166 478.714 432.931 467.07 420.898 455.217C428.518 457.91 439.166 462.727 446.871 465.962L505.427 491.086C523.946 473.818 541 455.709 560.054 438.472C573.775 426.003 587.78 413.851 602.057 402.023C611.037 394.53 620.361 387.195 629.171 379.531Z"/></svg>