<?xml version="1.0" encoding="utf-8" ?><svg xmlns="http://www.w3.org/2000/svg" xmlns:xlink="http://www.w3.org/1999/xlink" width="1024" height="1024" viewBox="0 0 1024 1024"><path d="M467.539 243.034C491.725 243.7 521.615 243.517 545.972 243.131C546.007 262.047 545.445 284.723 546.137 303.264C573.241 307.361 595.446 317.967 612.277 340.457C617.562 347.519 623.252 357.816 625.178 366.489C636.988 366.3 632.224 372.687 634.633 379.597C635.961 381.5 635.61 425.721 635.639 431.322L636.005 527.541L635.99 793.841C638.792 793.696 641.758 793.664 644.578 793.593L644.441 815.049L454.28 814.846L403.334 814.674C398.74 814.662 374.573 815.162 372.149 813.767C370.702 809.823 371.322 797.004 371.393 792.021C373.998 791.814 376.924 791.77 379.559 791.67L379.845 483.861L379.573 407.209C379.566 402.756 379.228 381.703 380.002 379.006C380.928 376.069 383.281 367.518 386.133 366.366C387.586 362.141 390.285 357.548 392.369 353.565C408.025 323.641 435.022 308.694 467.486 303.123L467.539 243.034Z"/><path d="M467.539 243.034C491.725 243.7 521.615 243.517 545.972 243.131C546.007 262.047 545.445 284.723 546.137 303.264C573.241 307.361 595.446 317.967 612.277 340.457C617.562 347.519 623.252 357.816 625.178 366.489C572.177 367.559 518.66 365.943 465.589 366.535C439.245 366.829 412.476 366.69 386.133 366.366C387.586 362.141 390.285 357.548 392.369 353.565C408.025 323.641 435.022 308.694 467.486 303.123L467.539 243.034Z"/><path fill="#FEFEFE" d="M505.668 265.929C511.286 265.165 516.503 268.979 517.479 274.565C518.454 280.15 514.839 285.507 509.294 286.692C505.517 287.5 501.601 286.178 499.086 283.246C496.571 280.315 495.86 276.243 497.232 272.632C498.604 269.022 501.84 266.45 505.668 265.929Z"/><path fill="#FEFEFE" d="M380.002 379.006C380.928 376.069 383.281 367.518 386.133 366.366C412.476 366.69 439.245 366.829 465.589 366.535C518.66 365.943 572.177 367.559 625.178 366.489C636.988 366.3 632.224 372.687 634.633 379.597C621.134 380.511 599.91 379.894 585.994 379.911L490.035 379.804L418.61 379.598C408.383 379.564 389.701 380.013 380.002 379.006Z"/><path d="M537.667 571.923C557.893 592.064 578.626 609.928 599.676 629.121C586.829 641.072 574.06 653.107 561.371 665.224C554.022 672.322 546.136 680.487 538.74 687.322C532.52 682.326 523.734 672.709 518.143 668.864C514.708 671.613 510.792 676.4 507.944 679.846C503.894 675.4 500.225 671.499 495.955 667.267C490.048 673.59 482.938 680.101 476.608 686.112C470.218 681.101 463.861 674.298 457.78 668.792C443.684 656.028 430.468 642.405 415.799 630.308C434.668 611.982 459.656 591.067 477.281 572.291C485.111 579.152 490.249 584.327 499.655 589.01C502.97 586.305 504.76 584.609 507.753 581.527C510.753 584.472 513.875 587.643 516.985 590.442C523.912 584.245 531.11 578.481 537.667 571.923Z"/><path d="M477.281 572.291C485.111 579.152 490.249 584.327 499.655 589.01C490.435 598.634 479.89 608.012 471.305 617.11C480.655 617.763 491.998 617.529 501.537 617.514C501.548 625.246 501.74 633.822 501.479 641.486C497.03 641.46 473.54 640.61 471.529 642.468C472.499 646.243 491.775 663.262 495.955 667.267C490.048 673.59 482.938 680.101 476.608 686.112C470.218 681.101 463.861 674.298 457.78 668.792C443.684 656.028 430.468 642.405 415.799 630.308C434.668 611.982 459.656 591.067 477.281 572.291Z"/><path fill="#FEFEFE" d="M507.753 581.527C510.753 584.472 513.875 587.643 516.985 590.442C524.113 597.32 538.634 610.31 544.553 617.01C534.947 617.093 523.936 616.894 514.471 617.334C514.373 625.39 514.37 633.448 514.463 641.504C523.42 641.537 535.948 641.216 544.568 641.752C541.116 647.79 523.995 663.065 518.143 668.864C514.708 671.613 510.792 676.4 507.944 679.846C503.894 675.4 500.225 671.499 495.955 667.267C491.775 663.262 472.499 646.243 471.529 642.468C473.54 640.61 497.03 641.46 501.479 641.486C501.74 633.822 501.548 625.246 501.537 617.514C491.998 617.529 480.655 617.763 471.305 617.11C479.89 608.012 490.435 598.634 499.655 589.01C502.97 586.305 504.76 584.609 507.753 581.527Z"/><path d="M476.927 436.774C484.256 442.295 489.814 449.715 498.315 455.411C501.418 452.557 504.923 449.536 507.529 446.268C510.584 449.553 513.766 453.097 516.929 456.246C523.363 449.504 529.722 443.439 536.187 436.871L576.029 474.489C583.127 481.226 592.419 489.569 598.83 496.733C577.479 515.072 559.034 533.548 538.549 551.788C533.773 547.852 522.975 537.405 518.541 532.712C514.543 535.93 511.217 539.636 507.72 543.37C504.195 539.713 501.26 536.786 497.469 533.341C490.781 539.783 485.01 543.949 477.728 551.485C457.547 533.859 436.714 513.361 416.718 495.148C436.193 475.411 457.107 456.301 476.927 436.774Z"/><path d="M536.187 436.871L576.029 474.489C583.127 481.226 592.419 489.569 598.83 496.733C577.479 515.072 559.034 533.548 538.549 551.788C533.773 547.852 522.975 537.405 518.541 532.712C524.101 527.6 541.39 512.29 544.843 506.999C535.609 506.243 524.199 506.649 514.597 506.319L514.632 482.949C524.072 482.954 535.538 483.253 544.812 482.665C541.946 478.853 536.083 474.012 532.375 470.69C527.078 466.037 521.927 461.219 516.929 456.246C523.363 449.504 529.722 443.439 536.187 436.871Z"/><path fill="#FEFEFE" d="M507.529 446.268C510.584 449.553 513.766 453.097 516.929 456.246C521.927 461.219 527.078 466.037 532.375 470.69C536.083 474.012 541.946 478.853 544.812 482.665C535.538 483.253 524.072 482.954 514.632 482.949L514.597 506.319C524.199 506.649 535.609 506.243 544.843 506.999C541.39 512.29 524.101 527.6 518.541 532.712C514.543 535.93 511.217 539.636 507.72 543.37C504.195 539.713 501.26 536.786 497.469 533.341C487.668 525.048 478.488 516.048 470.003 506.413L501.576 506.332C501.765 498.653 501.65 490.699 501.635 482.998C491.267 482.984 480.545 483.106 470.21 482.739C475.516 476.127 491.207 462.639 498.315 455.411C501.418 452.557 504.923 449.536 507.529 446.268Z"/><path fill="#FEFEFE" d="M432.929 774.241C471.987 773.452 513.309 773.988 552.411 774.215L608.682 774.116L608.75 789.087L582.75 789.134L405.602 789.123L405.591 774.511L432.929 774.241Z"/><path fill="#FEFEFE" d="M628.941 207.451C629.692 208.335 634.519 218.754 635.787 220.878C645.781 237.623 657.365 244.055 673.846 252.385L673.258 252.621C650.805 261.787 638.455 275.464 629.301 297.177C628.523 296.454 623.946 286.595 622.848 284.695C613.508 268.534 600.387 261.011 584.598 252.562C608.484 241.218 618.447 231.03 628.941 207.451Z"/><path fill="#FEFEFE" d="M363.504 237.805C364.863 239.766 367.967 248.452 369.895 251.717C380.112 269.017 391.879 276.672 409.365 284.596C406.198 285.588 403.105 286.803 400.109 288.231C382.114 296.952 370.958 310.738 364.508 329.379L363.789 329.735C362.46 326.611 361.97 323.594 360.654 320.565C352.228 301.167 338.14 292.136 319.413 284.423C342.36 273.923 356.849 263.512 363.504 237.805Z"/></svg>