<?xml version="1.0" encoding="utf-8" ?><svg xmlns="http://www.w3.org/2000/svg" xmlns:xlink="http://www.w3.org/1999/xlink" width="1024" height="1024" viewBox="0 0 1024 1024"><path d="M498.628 186.746C549.389 186.523 600.151 186.561 650.912 186.862L651.099 492.458C632.881 492.244 605.952 503.747 590.967 513.798C559.204 535.102 537.904 573.668 536.23 611.768C535.609 625.896 538.601 648.136 540.011 662.719C542.239 685.756 546.403 710.102 550.278 732.942C552.554 746.359 560.979 765.94 557.656 779.377C553.308 796.959 537.557 827.651 522.692 837.546C499.223 848.622 486.723 823.416 477.128 806.705C471.538 796.968 467.189 784.756 466.306 773.537C465.552 763.964 469.154 752.846 471.091 743.39C473.462 731.75 475.753 720.095 477.967 708.424C482.893 681.43 487.713 645.5 489.224 618.076C492.483 558.937 433.724 494.171 373.842 491.913L373.623 291.905C373.585 257.06 373.287 221.763 373.723 186.943L498.628 186.746Z"/><path fill="#FEFEFE" d="M536.596 224.352C543.015 240.484 547.789 258.189 553.759 274.563C556.275 281.463 558.933 288.826 561.031 295.827C569.386 271.882 576.884 248.405 585.028 224.562C587.904 231.006 591.409 242.075 593.788 249.036L609.49 295.81C616.601 274.697 624.608 246.025 633.165 226.077C633.682 235.473 633.545 245.186 633.597 254.61C633.799 290.715 633.417 326.752 633.99 362.86C609.496 363.276 583.877 362.894 559.299 362.909L416.75 363.005L391.017 362.934L391.194 224.652C395.382 234.436 398.77 245.508 401.95 255.682C406.215 269.086 410.185 282.582 413.856 296.161C414.95 293.629 415.816 290.917 416.675 288.292C423.693 266.848 431.546 245.739 438.718 224.335C446.999 248.088 455.048 271.922 462.862 295.834C463.443 292.771 464.429 289.984 465.497 287.069C473.092 266.353 479.976 245.367 487.385 224.595C496.002 246.002 504.097 273.442 511.887 295.839C513.281 290.145 517.407 279.491 519.462 273.453C524.924 257 530.637 240.631 536.596 224.352Z"/><path fill="#FEFEFE" d="M391.443 413.999L633.962 413.946C633.963 422.594 634.406 437.513 633.576 445.7C624.899 446.276 613.226 445.907 604.24 445.892L554.383 445.889L391.218 445.893C391.073 435.378 391.324 424.537 391.443 413.999Z"/><path fill="#FEFEFE" d="M489.525 455.751L633.979 455.963L634.028 472.553C602.025 473.39 567.402 472.823 535.25 472.869C487.165 473.085 439.079 472.956 390.996 472.483L390.992 455.97L489.525 455.751Z"/><path fill="#FEFEFE" d="M391.469 391.014L633.939 390.944C633.942 393.042 634.294 397.667 633.425 399.216C575.108 399.999 516.491 398.613 458.137 399.285C436.23 399.537 413.32 399.882 391.494 399.031L391.469 391.014Z"/></svg>